<svg width="75" height="71" viewBox="0 0 75 71" fill="none" xmlns="http://www.w3.org/2000/svg">
<path d="M37.4997 0.333175C27.8779 0.235402 18.6109 3.96187 11.7354 10.6936C4.85996 17.4253 0.938542 26.6115 0.833008 36.2332C0.870082 43.8371 3.31615 51.2336 7.81988 57.3603C12.3236 63.4871 18.6533 68.0288 25.8997 70.3332C27.733 70.6665 28.3997 69.5665 28.3997 68.5998C28.3997 67.6332 28.3997 65.4998 28.3997 62.4998C18.1997 64.6665 16.033 57.6998 16.033 57.6998C15.354 55.5128 13.9104 53.6433 11.9663 52.4332C8.63301 50.2332 12.233 50.2665 12.233 50.2665C13.3852 50.4205 14.4875 50.8334 15.4574 51.4742C16.4272 52.115 17.2394 52.9671 17.833 53.9665C18.8674 55.7602 20.5648 57.0761 22.5597 57.631C24.5546 58.1858 26.6876 57.9352 28.4997 56.9332C28.686 55.1078 29.5126 53.4073 30.833 52.1332C22.6997 51.2332 14.1663 48.1665 14.1663 34.3998C14.0936 30.8088 15.4205 27.3302 17.8663 24.6998C16.7524 21.6167 16.884 18.2209 18.233 15.2332C18.233 15.2332 21.333 14.2665 28.233 18.8998C34.2393 17.2993 40.56 17.2993 46.5663 18.8998C53.5663 14.2665 56.5663 15.2332 56.5663 15.2332C57.9154 18.2209 58.0469 21.6167 56.933 24.6998C59.4357 27.282 60.8345 30.7372 60.833 34.3332C60.833 48.1332 52.233 51.1665 44.1663 52.0665C45.0496 52.9241 45.7319 53.9667 46.1642 55.1194C46.5964 56.2721 46.7679 57.5063 46.6663 58.7332V68.5665C46.6663 68.5665 47.333 70.6665 49.1663 70.2998C56.3922 67.9812 62.7005 63.4384 67.1903 57.3203C71.6801 51.2022 74.1217 43.8218 74.1663 36.2332C74.0608 26.6115 70.1394 17.4253 63.2639 10.6936C56.3884 3.96187 47.1215 0.235402 37.4997 0.333175Z" fill="url(#paint0_linear_49_237)"/>
<defs>
<linearGradient id="paint0_linear_49_237" x1="37.4997" y1="0.331299" x2="37.4997" y2="70.394" gradientUnits="userSpaceOnUse">
<stop stop-color="#2D7AED"/>
<stop offset="1" stop-color="#4DC3C8"/>
</linearGradient>
</defs>
</svg>
