<svg width="81" height="80" viewBox="0 0 81 80" fill="none" xmlns="http://www.w3.org/2000/svg">
<path d="M74.5983 0.000302949H6.40208C4.85476 -0.0154443 3.36438 0.583279 2.25798 1.6651C1.15157 2.74691 0.519512 4.22346 0.500488 5.77075V74.2424C0.522952 75.7874 1.15652 77.2606 2.26255 78.3396C3.36858 79.4185 4.857 80.0155 6.40208 79.9997H74.5983C76.1457 80.012 77.6351 79.4112 78.7409 78.3287C79.8468 77.2462 80.4791 75.77 80.4999 74.2227V5.75108C80.4723 4.20833 79.8369 2.73882 78.7318 1.66197C77.6267 0.585115 76.1412 -0.012039 74.5983 0.000302949Z" fill="url(#paint0_linear_49_240)"/>
<path d="M12.3432 29.987H24.2185V68.1965H12.3432V29.987ZM18.2841 10.9707C19.6462 10.9707 20.9776 11.3747 22.11 12.1315C23.2424 12.8884 24.1249 13.9641 24.6458 15.2226C25.1668 16.4811 25.3027 17.8658 25.0365 19.2015C24.7703 20.5373 24.1139 21.7641 23.1504 22.7268C22.1868 23.6894 20.9594 24.3447 19.6233 24.6096C18.2873 24.8745 16.9027 24.7372 15.6447 24.2151C14.3867 23.693 13.3119 22.8095 12.5561 21.6763C11.8003 20.5432 11.3976 19.2114 11.3989 17.8493C11.4007 16.0244 12.1268 14.2748 13.4179 12.985C14.7089 11.6952 16.4592 10.9707 18.2841 10.9707Z" fill="white"/>
<path d="M31.6675 29.9869H43.051V35.2328H43.2084C44.7952 32.2295 48.6641 29.0623 54.4411 29.0623C66.4672 29.0361 68.6967 36.9508 68.6967 47.213V68.1964H56.8214V49.6064C56.8214 45.1802 56.7427 39.4819 50.6509 39.4819C44.5592 39.4819 43.5231 44.3081 43.5231 49.3179V68.1964H31.6675V29.9869Z" fill="white"/>
<defs>
<linearGradient id="paint0_linear_49_240" x1="40.5002" y1="0" x2="40.5002" y2="80" gradientUnits="userSpaceOnUse">
<stop stop-color="#2D7AED"/>
<stop offset="1" stop-color="#4DC3C8"/>
</linearGradient>
</defs>
</svg>
