<svg width="81" height="80" viewBox="0 0 81 80" fill="none" xmlns="http://www.w3.org/2000/svg">
<path d="M27.1699 40C27.1699 32.6365 33.1378 26.6656 40.5016 26.6656C47.8654 26.6656 53.8365 32.6365 53.8365 40C53.8365 47.3635 47.8654 53.3344 40.5016 53.3344C33.1378 53.3344 27.1699 47.3635 27.1699 40ZM19.9613 40C19.9613 51.344 29.1571 60.5395 40.5016 60.5395C51.8461 60.5395 61.0419 51.344 61.0419 40C61.0419 28.656 51.8461 19.4605 40.5016 19.4605C29.1571 19.4605 19.9613 28.656 19.9613 40ZM57.0549 18.6461C57.0538 21.297 59.2021 23.4469 61.8532 23.448C64.5042 23.4491 66.6542 21.3009 66.6553 18.6499C66.6563 15.999 64.5081 13.8491 61.857 13.848C59.2072 13.8492 57.0572 15.9964 57.0549 18.6461ZM24.341 72.559C20.441 72.3814 18.3212 71.7318 16.9125 71.183C15.0449 70.456 13.7124 69.5901 12.3114 68.191C10.9103 66.792 10.0431 65.4608 9.31923 63.5933C8.77009 62.1853 8.12046 60.065 7.94318 56.1651C7.74925 51.9488 7.71053 50.6822 7.71053 40.0003C7.71053 29.3184 7.75245 28.0554 7.94318 23.8355C8.12078 19.9357 8.77521 17.8195 9.31923 16.4074C10.0463 14.5398 10.9123 13.2074 12.3114 11.8064C13.7104 10.4054 15.0417 9.53824 16.9125 8.8144C18.3206 8.26528 20.441 7.61568 24.341 7.4384C28.5574 7.24448 29.8241 7.20576 40.5016 7.20576C51.1791 7.20576 52.447 7.24768 56.667 7.4384C60.567 7.616 62.6833 8.2704 64.0955 8.8144C65.9631 9.53824 67.2956 10.4074 68.6966 11.8064C70.0977 13.2054 70.9617 14.5398 71.6888 16.4074C72.2379 17.8154 72.8875 19.9357 73.0648 23.8355C73.2587 28.0554 73.2975 29.3184 73.2975 40.0003C73.2975 50.6822 73.2587 51.9453 73.0648 56.1651C72.8872 60.065 72.2344 62.1846 71.6888 63.5933C70.9617 65.4608 70.0957 66.7933 68.6966 68.191C67.2976 69.5888 65.9631 70.456 64.0955 71.183C62.6874 71.7322 60.567 72.3818 56.667 72.559C52.4506 72.753 51.184 72.7917 40.5016 72.7917C29.8193 72.7917 28.5562 72.753 24.341 72.559ZM24.0097 0.24224C19.7513 0.43616 16.8415 1.11136 14.3002 2.10016C11.6684 3.12128 9.44052 4.4912 7.21419 6.71392C4.98786 8.93664 3.6214 11.168 2.60024 13.7997C1.6114 16.3424 0.936177 19.2506 0.74225 23.5088C0.545122 27.7738 0.5 29.1373 0.5 40C0.5 50.8627 0.545122 52.2262 0.74225 56.4912C0.936177 60.7498 1.6114 63.6576 2.60024 66.2003C3.6214 68.8304 4.98818 71.0643 7.21419 73.2861C9.4402 75.5078 11.6684 76.8758 14.3002 77.8998C16.8463 78.8886 19.7513 79.5638 24.0097 79.7578C28.2771 79.9517 29.6384 80 40.5016 80C51.3648 80 52.7283 79.9549 56.9935 79.7578C61.2522 79.5638 64.1601 78.8886 66.703 77.8998C69.3332 76.8758 71.5627 75.5088 73.789 73.2861C76.0153 71.0634 77.3789 68.8304 78.403 66.2003C79.3918 63.6576 80.0702 60.7494 80.261 56.4912C80.4549 52.223 80.5 50.8627 80.5 40C80.5 29.1373 80.4549 27.7738 80.261 23.5088C80.067 19.2502 79.3918 16.3408 78.403 13.7997C77.3789 11.1696 76.0118 8.94016 73.789 6.71392C71.5662 4.48768 69.3332 3.12128 66.7062 2.10016C64.1601 1.11136 61.2519 0.43296 56.9967 0.24224C52.7315 0.04832 51.368 0 40.5048 0C29.6416 0 28.2771 0.04512 24.0097 0.24224Z" fill="url(#paint0_linear_49_227)"/>
<defs>
<linearGradient id="paint0_linear_49_227" x1="40.5" y1="0" x2="40.5" y2="80" gradientUnits="userSpaceOnUse">
<stop stop-color="#2D7AED"/>
<stop offset="1" stop-color="#4DC3C8"/>
</linearGradient>
</defs>
</svg>
