<svg width="80" height="80" viewBox="0 0 80 80" fill="none" xmlns="http://www.w3.org/2000/svg">
<path d="M39.9997 3.33318C30.3779 3.2354 21.1109 6.96187 14.2354 13.6936C7.35996 20.4253 3.43854 29.6115 3.33301 39.2332C3.37008 46.8371 5.81615 54.2336 10.3199 60.3603C14.8236 66.4871 21.1533 71.0288 28.3997 73.3332C30.233 73.6665 30.8997 72.5665 30.8997 71.5998C30.8997 70.6332 30.8997 68.4998 30.8997 65.4998C20.6997 67.6665 18.533 60.6998 18.533 60.6998C17.854 58.5128 16.4104 56.6433 14.4663 55.4332C11.133 53.2332 14.733 53.2665 14.733 53.2665C15.8852 53.4205 16.9875 53.8334 17.9574 54.4742C18.9272 55.115 19.7394 55.9671 20.333 56.9665C21.3674 58.7602 23.0648 60.0761 25.0597 60.631C27.0546 61.1858 29.1876 60.9352 30.9997 59.9332C31.186 58.1078 32.0126 56.4073 33.333 55.1332C25.1997 54.2332 16.6663 51.1665 16.6663 37.3998C16.5936 33.8088 17.9205 30.3302 20.3663 27.6998C19.2524 24.6167 19.384 21.2209 20.733 18.2332C20.733 18.2332 23.833 17.2665 30.733 21.8998C36.7393 20.2993 43.06 20.2993 49.0663 21.8998C56.0663 17.2665 59.0663 18.2332 59.0663 18.2332C60.4154 21.2209 60.5469 24.6167 59.433 27.6998C61.9357 30.282 63.3345 33.7372 63.333 37.3332C63.333 51.1332 54.733 54.1665 46.6663 55.0665C47.5496 55.9241 48.2319 56.9667 48.6642 58.1194C49.0964 59.2721 49.2679 60.5063 49.1663 61.7332V71.5665C49.1663 71.5665 49.833 73.6665 51.6663 73.2998C58.8922 70.9812 65.2005 66.4384 69.6903 60.3203C74.1801 54.2022 76.6217 46.8218 76.6663 39.2332C76.5608 29.6115 72.6394 20.4253 65.7639 13.6936C58.8884 6.96187 49.6215 3.2354 39.9997 3.33318Z" fill="url(#paint0_linear_49_235)"/>
<defs>
<linearGradient id="paint0_linear_49_235" x1="39.9997" y1="3.3313" x2="39.9997" y2="73.394" gradientUnits="userSpaceOnUse">
<stop stop-color="#2D7AED"/>
<stop offset="1" stop-color="#4DC3C8"/>
</linearGradient>
</defs>
</svg>
